<svg xmlns="http://www.w3.org/2000/svg" viewBox="0 0 340 56" fill="none">
  <g transform="translate(4, 8)">
    <rect x="0" y="22" width="5" height="16" rx="2.5" fill="#ffffff"/>
    <rect x="5" y="24" width="10" height="5" rx="1" fill="#ffffff"/>
    <rect x="14" y="10" width="22" height="26" rx="5" fill="#c4b94a"/>
    <rect x="17" y="13" width="4" height="20" rx="2" fill="rgba(255,255,255,0.3)"/>
    <path d="M38 14c10-3 20 3 30 0s20-5 30-2" stroke="#c4b94a" stroke-width="3.5" stroke-linecap="round" fill="none" opacity="0.7"/>
    <path d="M38 21c10-3 20 3 30 0s20-5 30-2" stroke="#c4b94a" stroke-width="3.5" stroke-linecap="round" fill="none" opacity="0.5"/>
    <path d="M38 28c10-3 20 3 30 0s20-5 30-2" stroke="#c4b94a" stroke-width="3.5" stroke-linecap="round" fill="none" opacity="0.3"/>
  </g>
  <text x="78" y="40" font-family="system-ui, -apple-system, BlinkMacSystemFont, 'Segoe UI', sans-serif" font-size="32" font-weight="900" fill="#ffffff" letter-spacing="-1">ARIX</text>
  <text x="170" y="40" font-family="Georgia, 'Times New Roman', serif" font-size="24" font-weight="400" font-style="italic" fill="#c4b94a" letter-spacing="-0.5">Schilderbedrijf</text>
</svg>
