<svg xmlns="http://www.w3.org/2000/svg" viewBox="0 0 600 600" width="600" height="600" preserveAspectRatio="xMidYMid meet" style="width: 100%; height: 100%; transform: translate3d(0px, 0px, 0px); opacity: 1; visibility: visible; display: inline;" transform="matrix(1, 0, 0, 1, 0, 0)" transform-origin="226.625px 226.625px" display="inline" data-level="149" tenwebX_tlevel="8" xmlns:xlink="http://www.w3.org/1999/xlink"><defs style="opacity: 1; visibility: visible; display: inline;" data-level="150"><clipPath id="__lottie_element_2" style="opacity: 1; visibility: visible; display: inline;" data-level="151"><rect width="600" height="600" x="0" y="0" style="opacity:1;stroke-width:1px;stroke-linecap:butt;stroke-linejoin:miter;transform-origin:0px 0px;display:inline;" data-level="152" fill="rgb(0, 0, 0)"></rect></clipPath></defs><g clip-path="url(#__lottie_element_2)" style="opacity: 1; visibility: visible; display: inline;" data-level="153"><g transform="matrix(1.945080041885376,0,0,1.945080041885376,188.04824829101562,129.95828247070312)" opacity="1" style="display: block; opacity: 1; visibility: visible; transform: translate(-50%, -50%) matrix(1.95, 0, 0, 1.95, 188.05, 129.96) translate(50%, 50%); transform-origin: center center;" data-level="154"><g opacity="1" transform="matrix(1,0,0,1,92.22899627685547,43.06800079345703)" style="opacity: 1; visibility: visible; display: inline; transform: translate(-50%, -50%) matrix(1, 0, 0, 1, 92.23, 43.07) translate(50%, 50%); transform-origin: center center;" data-level="155"><path fill-opacity="1" d=" M12.975000381469727,-3.6649999618530273 C10.032999992370605,-9.067999839782715 7.090000152587891,-14.470999717712402 4.146999835968018,-19.874000549316406 C1.9889999628067017,-23.83799934387207 -4.054999828338623,-31.257999420166016 -5.318999767303467,-29.5310001373291 C-8.416999816894531,-25.301000595092773 -0.628000020980835,-18.92300033569336 -2.9119999408721924,-13.871000289916992 C-7.86299991607666,-18.503999710083008 -10.812999725341797,-24.63800048828125 -14.295000076293945,-30.36400032043457 C-15.755000114440918,-32.766998291015625 -21.288999557495117,-42.81800079345703 -25.319000244140625,-40.04899978637695 C-27.013999938964844,-38.882999420166016 -26.378999710083008,-36.42300033569336 -25.913999557495117,-34.79899978637695 C-24.865999221801758,-31.139999389648438 -23.159000396728516,-27.697999954223633 -21.347999572753906,-24.36400032043457 C-19.503000259399414,-20.968000411987305 -17.641000747680664,-17.59600067138672 -15.833000183105469,-14.194999694824219 C-14.923999786376953,-10.64900016784668 -14.154000282287598,-7.070000171661377 -13.548999786376953,-3.4570000171661377 C-13.366999626159668,-2.367000102996826 -13.196999549865723,-1.2740000486373901 -13.043999671936035,-0.18000000715255737 C-12.859000205993652,1.128999948501587 -12.397000312805176,2.6080000400543213 -14.444999694824219,1.2400000095367432 C-15.71500015258789,0.3930000066757202 -16.393999099731445,-1.0800000429153442 -17.961999893188477,-1.5410000085830688 C-19.924999237060547,-2.118000030517578 -21.08099937438965,-0.796999990940094 -21.488000869750977,1 C-22.32699966430664,4.703000068664551 -21.020000457763672,8.635000228881836 -19.49799919128418,11.968999862670898 C-16.211999893188477,19.160999298095703 -11.87399959564209,26.52899932861328 -6.531000137329102,32.393001556396484 C-4.308000087738037,34.832000732421875 4.144999980926514,42.81700134277344 7.3379998207092285,37.742000579833984 C8.368000030517578,36.10599899291992 8.420000076293945,33.59000015258789 8.604999542236328,31.743999481201172 C8.821999549865723,29.590999603271484 8.873000144958496,27.422000885009766 8.753000259399414,25.261999130249023 C8.552000045776367,21.618000030517578 4.781000137329102,11.958000183105469 8.984999656677246,12.151000022888184 C14.428000450134277,12.401000022888184 15.843000411987305,26.065000534057617 19.9060001373291,24.96500015258789 C27.013999938964844,23.038999557495117 17.496000289916992,4.638000011444092 12.975000381469727,-3.6649999618530273z" style="opacity:1;stroke-width:1px;stroke-linecap:butt;stroke-linejoin:miter;transform-origin:0px 0px;display:inline;" data-level="156" fill="rgb(232, 230, 251)"></path></g></g><g transform="matrix(1,0,0,1,0,0)" opacity="1" style="display: block; opacity: 1; visibility: visible;" data-level="157"><g opacity="1" transform="matrix(1.945080041885376,0,0,1.945080041885376,188.04783630371094,129.95663452148438)" style="opacity: 1; visibility: visible; display: inline; transform: translate(-50%, -50%) matrix(1.95, 0, 0, 1.95, 188.05, 129.96) translate(50%, 50%); transform-origin: center center;" data-level="158"><g opacity="1" transform="matrix(1,0,0,1,43.472999572753906,125.16300201416016)" style="opacity: 1; visibility: visible; display: inline; transform: translate(-50%, -50%) matrix(1, 0, 0, 1, 43.47, 125.16) translate(50%, 50%); transform-origin: center center;" data-level="159"><path fill-opacity="1" d=" M-9.164999961853027,-18.525999069213867 C-8.885000228881836,-17.775999069213867 -8.574999809265137,-16.985000610351562 -8.265000343322754,-16.173999786376953 C-6.105000019073486,-10.625 -3.4549999237060547,-4.156000137329102 -3.184999942779541,-0.7960000038146973 C-2.684999942779541,5.453999996185303 0.23499999940395355,20.68899917602539 0.20499999821186066,28.069000244140625 C0.16500000655651093,34.11899948120117 1.8799999952316284,38.20399856567383 1.75,39.59400177001953 C1.7599999904632568,39.6150016784668 0.08500000089406967,40.61600112915039 0.08500000089406967,40.61600112915039 C0.08500000089406967,40.61600112915039 7.432000160217285,36.11199951171875 7.432000160217285,36.11199951171875 C9.538000106811523,27.44499969482422 11.505000114440918,8.866000175476074 11.505000114440918,-0.6340000033378601 C11.505000114440918,-10.133999824523926 10.6850004196167,-25.964000701904297 7.195000171661377,-33.474998474121094 C3.875,-40.6150016784668 -9.375,-27.634000778198242 -10.914999961853027,-25.884000778198242 C-11.505000114440918,-25.214000701904297 -10.5649995803833,-22.2549991607666 -9.164999961853027,-18.525999069213867z" style="opacity:1;stroke-width:1px;stroke-linecap:butt;stroke-linejoin:miter;transform-origin:0px 0px;display:inline;" data-level="160" fill="rgb(51, 27, 108)"></path></g></g><g opacity="1" transform="matrix(1.945080041885376,0,0,1.945080041885376,188.04832458496094,129.9583740234375)" style="opacity: 1; visibility: visible; display: inline; transform: translate(-50%, -50%) matrix(1.95, 0, 0, 1.95, 188.05, 129.96) translate(50%, 50%); transform-origin: center center;" data-level="161"><g opacity="1" transform="matrix(1,0,0,1,41.3380012512207,133.9320068359375)" style="opacity: 1; visibility: visible; display: inline; transform: translate(-50%, -50%) matrix(1, 0, 0, 1, 41.34, 133.93) translate(50%, 50%); transform-origin: center center;" data-level="162"><path fill-opacity="1" d=" M-7.03000020980835,-27.295000076293945 C-6.75,-26.545000076293945 -6.440000057220459,-25.7549991607666 -6.130000114440918,-24.944000244140625 C-3.9700000286102295,-19.395000457763672 -1.3200000524520874,-12.925000190734863 -1.0499999523162842,-9.5649995803833 C-0.550000011920929,-3.315000057220459 1.8339999914169312,28.378999710083008 2.3399999141693115,30.424999237060547 C3.3399999141693115,30.983999252319336 6.570000171661377,30.94499969482422 6.619999885559082,30.375 C7.03000020980835,25.055999755859375 4.650000095367432,19.94499969482422 4.050000190734863,14.734999656677246 C2.890000104904175,4.784999847412109 6.329999923706055,-5.715000152587891 2.0899999141693115,-15.234000205993652 C0.8999999761581421,-17.90399932861328 -1.0299999713897705,-20.645000457763672 -0.8399999737739563,-23.694000244140625 C-0.75,-25.204999923706055 0.23000000417232513,-26.924999237060547 -0.6299999952316284,-28.385000228881836 C-2.1600000858306885,-30.983999252319336 -5.050000190734863,-29.233999252319336 -6.389999866485596,-27.444000244140625 C-6.539999961853027,-27.5049991607666 -6.710000038146973,-27.514999389648438 -6.869999885559082,-27.40399932861328 C-6.920000076293945,-27.36400032043457 -6.980000019073486,-27.334999084472656 -7.03000020980835,-27.295000076293945z" style="opacity:1;stroke-width:1px;stroke-linecap:butt;stroke-linejoin:miter;transform-origin:0px 0px;display:inline;" data-level="163" fill="rgb(31, 13, 82)"></path></g></g></g><g transform="matrix(1.945080041885376,0,0,1.945080041885376,188.0474853515625,129.95797729492188)" opacity="1" style="display: block; opacity: 1; visibility: visible; transform: translate(-50%, -50%) matrix(1.95, 0, 0, 1.95, 188.05, 129.96) translate(50%, 50%); transform-origin: center center;" data-level="164"><g opacity="1" transform="matrix(1,0,0,1,50.904998779296875,166.07899475097656)" style="opacity: 1; visibility: visible; display: inline; transform: translate(-50%, -50%) matrix(1, 0, 0, 1, 50.91, 166.08) translate(50%, 50%); transform-origin: center center;" data-level="165"><path fill-opacity="1" d=" M-6.433000087738037,6.198999881744385 C-6.664999961853027,6.22599983215332 -6.909999847412109,6.251999855041504 -7.123000144958496,6.156000137329102 C-7.668000221252441,5.914000034332275 -7.632999897003174,5.144999980926514 -7.560999870300293,4.552999973297119 C-7.218999862670898,1.715999960899353 -8.145999908447266,-1.1039999723434448 -9.060999870300293,-3.811000108718872 C-5.243000030517578,-3.819000005722046 -1.4279999732971191,-4.6579999923706055 2.0420000553131104,-6.252999782562256 C1.8229999542236328,-4.076000213623047 1.1490000486373901,-1.9459999799728394 0.07599999755620956,-0.03999999910593033 C1.8350000381469727,-0.13099999725818634 3.638000011444092,-0.1080000028014183 5.302999973297119,0.4690000116825104 C6.9670000076293945,1.0449999570846558 8.491999626159668,2.25600004196167 9.060999870300293,3.9230000972747803 C9.060999870300293,3.9230000972747803 -1.3769999742507935,5.607999801635742 -6.433000087738037,6.198999881744385z" style="opacity:1;stroke-width:1px;stroke-linecap:butt;stroke-linejoin:miter;transform-origin:0px 0px;display:inline;" data-level="166" fill="rgb(255, 168, 0)"></path></g></g><g transform="matrix(1,0,0,1,0,0)" opacity="1" style="display: block; opacity: 1; visibility: visible;" data-level="167"><g opacity="1" transform="matrix(1.945080041885376,0,0,1.945080041885376,188.0484619140625,129.95814514160156)" style="opacity: 1; visibility: visible; display: inline; transform: translate(-50%, -50%) matrix(1.95, 0, 0, 1.95, 188.05, 129.96) translate(50%, 50%); transform-origin: center center;" data-level="168"><g opacity="1" transform="matrix(1,0,0,1,21.202999114990234,125.2959976196289)" style="opacity: 1; visibility: visible; display: inline; transform: translate(-50%, -50%) matrix(1, 0, 0, 1, 21.2, 125.3) translate(50%, 50%); transform-origin: center center;" data-level="169"><path fill-opacity="1" d=" M-15.305000305175781,33.95199966430664 C-15.305000305175781,33.95199966430664 -7.941999912261963,35.97800064086914 -7.941999912261963,35.97800064086914 C-0.14900000393390656,26.905000686645508 7.052000045776367,15.20300006866455 9.368000030517578,5.988999843597412 C12.704000473022461,-7.283999919891357 15.645000457763672,-24.29400062561035 15.734999656677246,-28.15399932861328 C15.744999885559082,-28.77400016784668 15.755000114440918,-29.104000091552734 15.755000114440918,-29.104000091552734 C15.414999961853027,-29.52400016784668 14.614999771118164,-29.538000106811523 14.255000114440918,-29.917999267578125 C10.864999771118164,-33.54800033569336 6.934999942779541,-35.61800003051758 4.485000133514404,-35.90800094604492 C3.9149999618530273,-35.97800064086914 3.424999952316284,-35.948001861572266 3.0450000762939453,-35.819000244140625 C2.7049999237060547,-35.70800018310547 2.4549999237060547,-35.52799987792969 2.2950000762939453,-35.268001556396484 C1.1950000524520874,-33.428001403808594 0.33500000834465027,-31.72800064086914 -0.33500000834465027,-30.128000259399414 C-4.704999923706055,-19.74799919128418 -2.953000068664551,-13.220999717712402 -3.0329999923706055,0.27900001406669617 C-3.062999963760376,6.548999786376953 0.17399999499320984,11.810999870300293 -5.995999813079834,21.31100082397461 C-8.366000175476074,24.972000122070312 -11.604999542236328,29.150999069213867 -12.774999618530273,32.31100082397461 C-13.28499984741211,33.70100021362305 -15.305000305175781,33.95199966430664 -15.305000305175781,33.95199966430664z" style="opacity:1;stroke-width:1px;stroke-linecap:butt;stroke-linejoin:miter;transform-origin:0px 0px;display:inline;" data-level="170" fill="rgb(51, 27, 108)"></path></g></g><g opacity="1" transform="matrix(1.945080041885376,0,0,1.945080041885376,188.04788208007812,129.95819091796875)" style="opacity: 1; visibility: visible; display: inline; transform: translate(-50%, -50%) matrix(1.95, 0, 0, 1.95, 188.05, 129.96) translate(50%, 50%); transform-origin: center center;" data-level="171"><g opacity="1" transform="matrix(1,0,0,1,21.475000381469727,108.18800354003906)" style="opacity: 1; visibility: visible; display: inline; transform: translate(-50%, -50%) matrix(1, 0, 0, 1, 21.48, 108.19) translate(50%, 50%); transform-origin: center center;" data-level="172"><path fill-opacity="1" d=" M-13.984000205993652,50.35200119018555 C-13.293999671936035,50.60200119018555 -12.583999633789062,50.750999450683594 -11.96399974822998,50.731998443603516 C-10.234000205993652,50.68199920654297 -10.47700023651123,47.13999938964844 -9.756999969482422,45.869998931884766 C-7.177000045776367,41.279998779296875 -4.197000026702881,36.93000030517578 -0.8579999804496765,32.880001068115234 C0.5830000042915344,31.139999389648438 2.2139999866485596,29.499000549316406 3.1029999256134033,27.389999389648438 C4.02400016784668,25.239999771118164 4.263999938964844,22.770000457763672 4.423999786376953,20.458999633789062 C4.814000129699707,15.020000457763672 3.563999891281128,9.949999809265137 3.063999891281128,4.590000152587891 C2.7639999389648438,1.2999999523162842 3.003000020980835,-1.9800000190734863 3.193000078201294,-5.269999980926514 C3.203000068664551,-5.269999980926514 3.2039999961853027,-5.28000020980835 3.2039999961853027,-5.290999889373779 C3.7239999771118164,-7.519999980926514 3.7699999809265137,-9.609000205993652 3.802999973297119,-11.670000076293945 C3.75600004196167,-12.121999740600586 -0.32499998807907104,-13.310999870300293 -0.6079999804496765,-13.020000457763672 C-4.9770002365112305,-2.640000104904175 -3.506999969482422,3.503999948501587 -3.819999933242798,17.000999450683594 C-4.019999980926514,25.632999420166016 -4.790999889373779,24.86199951171875 -8.581000328063965,35.630001068115234 C-11.774999618530273,44.70500183105469 -11.630999565124512,47.25199890136719 -13.984000205993652,50.35200119018555z" style="opacity:1;stroke-width:1px;stroke-linecap:butt;stroke-linejoin:miter;transform-origin:0px 0px;display:inline;" data-level="173" fill="rgb(31, 13, 82)"></path></g></g></g><g transform="matrix(1.9261506795883179,-0.2707028090953827,0.2707028090953827,1.9261506795883179,146.3965301513672,139.4835205078125)" opacity="1" style="display: block; opacity: 1; visibility: visible; transform: matrix(1.95, 0, 0, 1.95, 506.4, 337.48); transform-origin: center center;" data-level="174" R_transform="matrix(0.99, -0.14, 0.14, 0.99, 0, 0)" R_inverse_transform="matrix(0.99, 0.14, -0.14, 0.99, 0, 0)"><g opacity="1" transform="matrix(1,0,0,1,7.849999904632568,162.91799926757812)" style="opacity: 1; visibility: visible; display: inline; transform: translate(-50%, -50%) matrix(1, 0, 0, 1, 7.85, 162.92) translate(50%, 50%); transform-origin: center center;" data-level="175"><path fill-opacity="1" d=" M-4.13100004196167,2.509000062942505 C-4.270999908447266,2.321000099182129 -7.2829999923706055,-0.703000009059906 -7.372000217437744,-0.9190000295639038 C-7.599999904632568,-1.4700000286102295 -7.045000076293945,-2.000999927520752 -6.585999965667725,-2.381999969482422 C-4.383999824523926,-4.204999923706055 -1.5800000429153442,-6.00600004196167 -0.3799999952316284,-8.600000381469727 C1.6649999618530273,-5.785999774932861 3.765000104904175,-3.193000078201294 7.35699987411499,-1.1699999570846558 C5.701000213623047,0.2590000033378601 4.271999835968018,0.19599999487400055 3.7739999294281006,0.33799999952316284 C3.562000036239624,3.303999900817871 11.748000144958496,9.711999893188477 5.909999847412109,8.600000381469727 C5.909999847412109,8.600000381469727 0.5799999833106995,8.822999954223633 -4.13100004196167,2.509000062942505z" style="opacity:1;stroke-width:1px;stroke-linecap:butt;stroke-linejoin:miter;transform-origin:0px 0px;display:inline;" data-level="176" fill="rgb(255, 168, 0)"></path></g></g><g transform="matrix(1,0,0,1,0,0)" opacity="1" style="display: block; opacity: 1; visibility: visible;" data-level="177"><g opacity="1" transform="matrix(1.945080041885376,0,0,1.945080041885376,188.04879760742188,129.95753479003906)" style="opacity: 1; visibility: visible; display: inline; transform: translate(-50%, -50%) matrix(1.95, 0, 0, 1.95, 188.05, 129.96) translate(50%, 50%); transform-origin: center center;" data-level="178"><g opacity="1" transform="matrix(1,0,0,1,54.757999420166016,71.62300109863281)" style="opacity: 1; visibility: visible; display: inline; transform: translate(-50%, -50%) matrix(1, 0, 0, 1, 54.76, 71.62) translate(50%, 50%); transform-origin: center center;" data-level="179"><path fill-opacity="1" d=" M-10.020000457763672,-0.17499999701976776 C-10.020000457763672,-0.17499999701976776 -10.149999618530273,1.125 -9.880000114440918,2.9839999675750732 C-9.609999656677246,4.814000129699707 -8.949999809265137,7.005000114440918 -7.400000095367432,9.064000129699707 C-5.269999980926514,11.914999961853027 -1.4500000476837158,14.505000114440918 5.320000171661377,15.494999885559082 C9.729999542236328,16.135000228881836 12.050000190734863,10.78499984741211 12.84000015258789,3.694999933242798 C13.210000038146973,0.32499998807907104 13.239999771118164,-3.436000108718872 12.989999771118164,-7.135000228881836 C12.90999984741211,-8.355999946594238 10.010000228881836,-6.204999923706055 10.010000228881836,-6.204999923706055 C8.510000228881836,-5.895999908447266 6.03000020980835,6.135000228881836 4.559999942779541,5.335000038146973 C4.090000152587891,5.074999809265137 2.940000057220459,3.0850000381469727 1.4299999475479126,0.45500001311302185 C1.1699999570846558,0.014000000432133675 0.8999999761581421,-0.45500001311302185 0.6200000047683716,-0.9359999895095825 C-2.4200000762939453,-6.185999870300293 -6.579999923706055,-13.055000305175781 -9.920000076293945,-14.605999946594238 C-13.239999771118164,-16.135000228881836 -10.020000457763672,-0.17499999701976776 -10.020000457763672,-0.17499999701976776z" style="opacity:1;stroke-width:1px;stroke-linecap:butt;stroke-linejoin:miter;transform-origin:0px 0px;display:inline;" data-level="180" fill="rgb(255, 80, 92)"></path></g></g><g opacity="1" transform="matrix(1.945080041885376,0,0,1.945080041885376,188.04867553710938,129.956787109375)" style="opacity: 1; visibility: visible; display: inline; transform: translate(-50%, -50%) matrix(1.95, 0, 0, 1.95, 188.05, 129.96) translate(50%, 50%); transform-origin: center center;" data-level="181"><g opacity="1" transform="matrix(1,0,0,1,57.47800064086914,79.22200012207031)" style="opacity: 1; visibility: visible; display: inline; transform: translate(-50%, -50%) matrix(1, 0, 0, 1, 57.48, 79.22) translate(50%, 50%); transform-origin: center center;" data-level="182"><path fill-opacity="1" d=" M-10.119999885559082,1.465000033378601 C-7.989999771118164,4.315999984741211 -4.170000076293945,6.90500020980835 2.5999999046325684,7.895999908447266 C7.010000228881836,8.53499984741211 9.329999923706055,3.186000108718872 10.119999885559082,-3.9040000438690186 C10.020000457763672,-3.884999990463257 9.920000076293945,-3.8450000286102295 9.8100004196167,-3.7950000762939453 C8.4399995803833,-3.194000005722046 7.489999771118164,-0.3140000104904175 6.840000152587891,0.9649999737739563 C5.349999904632568,3.875 3.8499999046325684,5.954999923706055 0.05999999865889549,4.704999923706055 C-1.25,4.276000022888184 -3.240000009536743,3.6649999618530273 -3.4200000762939453,2.005000114440918 C-3.5399999618530273,0.9049999713897705 -2.7200000286102295,-0.7950000166893005 -2.4000000953674316,-1.8539999723434448 C-1.8799999952316284,-3.625 -1.4199999570846558,-5.324999809265137 -1.2899999618530273,-7.144000053405762 C-1.5499999523162842,-7.585000038146973 -1.8200000524520874,-8.055000305175781 -2.0999999046325684,-8.53499984741211 C-3.440000057220459,-7.804999828338623 -4.789999961853027,-6.994999885559082 -5.71999979019165,-5.755000114440918 C-6.340000152587891,-4.914999961853027 -6.579999923706055,-3.9149999618530273 -7.130000114440918,-3.0350000858306885 C-7.650000095367432,-2.194000005722046 -8.470000267028809,-1.625 -9.079999923706055,-0.8539999723434448 C-9.720000267028809,-0.054999999701976776 -10.050000190734863,0.7149999737739563 -10.119999885559082,1.465000033378601z" style="opacity:1;stroke-width:1px;stroke-linecap:butt;stroke-linejoin:miter;transform-origin:0px 0px;display:inline;" data-level="183" fill="rgb(251, 59, 75)"></path></g></g><g opacity="1" transform="matrix(1.945080041885376,0,0,1.945080041885376,188.04759216308594,129.95712280273438)" style="opacity: 1; visibility: visible; display: inline; transform: translate(-50%, -50%) matrix(1.95, 0, 0, 1.95, 188.05, 129.96) translate(50%, 50%); transform-origin: center center;" data-level="184"><g opacity="1" transform="matrix(1,0,0,1,49.84299850463867,70.08399963378906)" style="opacity: 1; visibility: visible; display: inline; transform: translate(-50%, -50%) matrix(1, 0, 0, 1, 49.84, 70.08) translate(50%, 50%); transform-origin: center center;" data-level="185"><path fill-opacity="1" d=" M-5.10099983215332,1.3609999418258667 C-5.10099983215332,1.3609999418258667 -5.230999946594238,2.6610000133514404 -4.960999965667725,4.520999908447266 C-4.64900016784668,6.684000015258789 -3.803999900817871,9.595999717712402 -1.6030000448226929,12.072999954223633 C0.6430000066757202,14.598999977111816 8.321000099182129,2.2839999198913574 6.117000102996826,-0.8109999895095825 C2.760999917984009,-5.52400016784668 -1.718000054359436,-11.54800033569336 -5.000999927520752,-13.069000244140625 C-8.321000099182129,-14.598999977111816 -5.10099983215332,1.3609999418258667 -5.10099983215332,1.3609999418258667z" style="opacity:1;stroke-width:1px;stroke-linecap:butt;stroke-linejoin:miter;transform-origin:0px 0px;display:inline;" data-level="186" fill="rgb(255, 173, 0)"></path></g></g></g><g transform="matrix(1,0,0,1,0,0)" opacity="1" style="display: block; opacity: 1; visibility: visible;" data-level="187"><g opacity="1" transform="matrix(1.945080041885376,0,0,1.945080041885376,188.04791259765625,129.95652770996094)" style="opacity: 1; visibility: visible; display: inline; transform: translate(-50%, -50%) matrix(1.95, 0, 0, 1.95, 188.05, 129.96) translate(50%, 50%); transform-origin: center center;" data-level="188"><g opacity="1" transform="matrix(1,0,0,1,46.290000915527344,69.27400207519531)" style="opacity: 1; visibility: visible; display: inline; transform: translate(-50%, -50%) matrix(1, 0, 0, 1, 46.29, 69.27) translate(50%, 50%); transform-origin: center center;" data-level="189"><path fill-opacity="1" d=" M-0.9940000176429749,-12.022000312805176 C-0.9940000176429749,-12.022000312805176 1.2100000381469727,-10.937000274658203 1.7100000381469727,-7.561999797821045 C2.2100000381469727,-4.186999797821045 2.9489998817443848,5.111999988555908 2.0169999599456787,8.567000389099121 C2.0169999599456787,8.567000389099121 1.0850000381469727,12.022000312805176 1.0850000381469727,12.022000312805176 C1.0850000381469727,12.022000312805176 -2.9489998817443848,10.76099967956543 -2.9489998817443848,10.76099967956543 C-2.9489998817443848,10.76099967956543 -2.940000057220459,5.684000015258789 -2.615000009536743,4.914999961853027 C-2.2899999618530273,4.146999835968018 -0.9940000176429749,-12.022000312805176 -0.9940000176429749,-12.022000312805176z" style="opacity:1;stroke-width:1px;stroke-linecap:butt;stroke-linejoin:miter;transform-origin:0px 0px;display:inline;" data-level="190" fill="rgb(31, 13, 68)"></path></g></g><g opacity="1" transform="matrix(1.945080041885376,0,0,1.945080041885376,188.04751586914062,129.9584197998047)" style="opacity: 1; visibility: visible; display: inline; transform: translate(-50%, -50%) matrix(1.95, 0, 0, 1.95, 188.05, 129.96) translate(50%, 50%); transform-origin: center center;" data-level="191"><g opacity="1" transform="matrix(1,0,0,1,35.01900100708008,76.36499786376953)" style="opacity: 1; visibility: visible; display: inline; transform: translate(-50%, -50%) matrix(1, 0, 0, 1, 35.02, 76.36) translate(50%, 50%); transform-origin: center center;" data-level="192"><path fill-opacity="1" d=" M-15.375,4.124000072479248 C-15.154999732971191,11.505000114440918 -14.484999656677246,18.354999542236328 -13.954999923706055,19.4950008392334 C-13.364999771118164,20.7450008392334 -5.210000038146973,21.36400032043457 1.9589999914169312,20.253999710083008 C9.128999710083008,19.15399932861328 15.3149995803833,16.323999404907227 15.645000457763672,15.324000358581543 C15.03499984741211,11.734000205993652 12.045000076293945,6.994999885559082 11.71500015258789,1.9950000047683716 C11.614999771118164,0.41499999165534973 11.864999771118164,-2.115000009536743 12.104999542236328,-4.895999908447266 C12.635000228881836,-10.88599967956543 13.104999542236328,-18.02400016784668 9.824999809265137,-19.344999313354492 C9.585000038146973,-19.434999465942383 9.354999542236328,-19.52400016784668 9.125,-19.604000091552734 C8.145000457763672,-19.975000381469727 7.184999942779541,-20.256000518798828 6.244999885559082,-20.465999603271484 C6.235000133514404,-20.465999603271484 6.235000133514404,-20.475000381469727 6.235000133514404,-20.475000381469727 C2.3550000190734863,-21.36400032043457 -1.1749999523162842,-21.104999542236328 -4.204999923706055,-20.315000534057617 C-6.175000190734863,-19.815000534057617 -7.934999942779541,-19.086000442504883 -9.4350004196167,-18.29599952697754 C-10.395000457763672,-17.79599952697754 -11.244999885559082,-17.274999618530273 -11.975000381469727,-16.774999618530273 C-12.46500015258789,-16.44499969482422 -12.904999732971191,-16.13599967956543 -13.28499984741211,-15.836000442504883 C-15.28499984741211,-14.295999526977539 -15.645000457763672,-4.705999851226807 -15.375,4.124000072479248z" style="opacity:1;stroke-width:1px;stroke-linecap:butt;stroke-linejoin:miter;transform-origin:0px 0px;display:inline;" data-level="193" fill="rgb(255, 173, 0)"></path></g></g><g opacity="1" transform="matrix(1.945080041885376,0,0,1.945080041885376,188.04869079589844,129.95692443847656)" style="opacity: 1; visibility: visible; display: inline; transform: translate(-50%, -50%) matrix(1.95, 0, 0, 1.95, 188.05, 129.96) translate(50%, 50%); transform-origin: center center;" data-level="194"><g opacity="1" transform="matrix(1,0,0,1,36.7130012512207,53.915000915527344)" style="opacity: 1; visibility: visible; display: inline; transform: translate(-50%, -50%) matrix(1, 0, 0, 1, 36.71, 53.91) translate(50%, 50%); transform-origin: center center;" data-level="195"><path fill-opacity="1" d=" M1.656999945640564,-1.6979999542236328 C1.656999945640564,-1.6979999542236328 1.656999945640564,1.5089999437332153 1.656999945640564,1.5089999437332153 C1.656999945640564,1.5089999437332153 2.4149999618530273,2.9010000228881836 1.656999945640564,3.052000045776367 C-0.009999999776482582,3.384999990463257 -2.4149999618530273,1.5119999647140503 -2.4149999618530273,1.5119999647140503 C-2.4149999618530273,1.5119999647140503 -2.4149999618530273,-3.384999990463257 -2.4149999618530273,-3.384999990463257 C-2.4149999618530273,-3.384999990463257 1.656999945640564,-1.6979999542236328 1.656999945640564,-1.6979999542236328z" style="opacity:1;stroke-width:1px;stroke-linecap:butt;stroke-linejoin:miter;transform-origin:0px 0px;display:inline;" data-level="196" fill="rgb(255, 80, 92)"></path></g></g><g opacity="1" transform="matrix(1.945080041885376,0,0,1.945080041885376,188.04885864257812,129.95802307128906)" style="opacity: 1; visibility: visible; display: inline; transform: translate(-50%, -50%) matrix(1.95, 0, 0, 1.95, 188.05, 129.96) translate(50%, 50%); transform-origin: center center;" data-level="197"><g opacity="1" transform="matrix(1,0,0,1,35.15800094604492,76.33799743652344)" style="opacity: 1; visibility: visible; display: inline; transform: translate(-50%, -50%) matrix(1, 0, 0, 1, 35.16, 76.34) translate(50%, 50%); transform-origin: center center;" data-level="198"><path fill-opacity="1" d=" M-15.510000228881836,4.150000095367432 C-15.319999694824219,10.609999656677246 -14.779999732971191,16.660999298095703 -14.289999961853027,18.83099937438965 C-14.220000267028809,19.150999069213867 -14.149999618530273,19.3799991607666 -14.09000015258789,19.520000457763672 C-13.84000015258789,20.070999145507812 -12.109999656677246,19.84000015258789 -9.880000114440918,20.18000030517578 C-9.739999771118164,20.19099998474121 -9.600000381469727,20.219999313354492 -9.460000038146973,20.240999221801758 C-8.369999885559082,20.44099998474121 -4.269999980926514,19.860000610351562 0.30000001192092896,19.040000915527344 C7.260000228881836,17.780000686645508 15.319999694824219,15.9399995803833 15.510000228881836,15.348999977111816 C14.899999618530273,11.758999824523926 11.90999984741211,7.019999980926514 11.579999923706055,2.0199999809265137 C11.479999542236328,0.4410000145435333 11.729999542236328,-2.0899999141693115 11.970000267028809,-4.870999813079834 C11.970000267028809,-4.870999813079834 11.84000015258789,-5.230000019073486 11.84000015258789,-5.230000019073486 C11.84000015258789,-5.230000019073486 10.920000076293945,-6.638999938964844 10.59000015258789,-8.229999542236328 C10.260000228881836,-9.809000015258789 10.300000190734863,-16.268999099731445 8.989999771118164,-19.57900047302246 C8.010000228881836,-19.950000762939453 7.050000190734863,-20.229999542236328 6.110000133514404,-20.440000534057617 C6.239999771118164,-20.1200008392334 7.119999885559082,-14.710000038146973 6.949999809265137,-8.651000022888184 C6.940000057220459,-8.289999961853027 6.679999828338623,-8 6.329999923706055,-7.951000213623047 C5.329999923706055,-7.809999942779541 3.2899999618530273,-7.550000190734863 1.8799999952316284,-7.590000152587891 C1.559999942779541,-7.599999904632568 1.2999999523162842,-7.800000190734863 1.2000000476837158,-8.100000381469727 C0.5299999713897705,-10.220000267028809 -2.309999942779541,-18.839000701904297 -4.340000152587891,-20.288999557495117 C-5.380000114440918,-20.030000686645508 -6.360000133514404,-19.700000762939453 -7.269999980926514,-19.32900047302246 C-7.610000133514404,-19.190000534057617 -7.949999809265137,-19.049999237060547 -8.270000457763672,-18.900999069213867 C-8.720000267028809,-18.701000213623047 -9.15999984741211,-18.490999221801758 -9.569999694824219,-18.270000457763672 C-9.569999694824219,-18.270000457763672 -3.9100000858306885,-10.930000305175781 -4.789999961853027,-5.809999942779541 C-5.610000133514404,-0.9599999785423279 -14.569999694824219,3.6700000762939453 -15.510000228881836,4.150000095367432z" style="opacity:1;stroke-width:1px;stroke-linecap:butt;stroke-linejoin:miter;transform-origin:0px 0px;display:inline;" data-level="199" fill="rgb(51, 27, 108)"></path></g></g><g opacity="1" transform="matrix(1.945080041885376,0,0,1.945080041885376,188.04788208007812,129.95819091796875)" style="opacity: 1; visibility: visible; display: inline; transform: translate(-50%, -50%) matrix(1.95, 0, 0, 1.95, 188.05, 129.96) translate(50%, 50%); transform-origin: center center;" data-level="200"><g opacity="1" transform="matrix(1,0,0,1,21.475000381469727,108.18800354003906)" style="opacity: 1; visibility: visible; display: inline; transform: translate(-50%, -50%) matrix(1, 0, 0, 1, 21.48, 108.19) translate(50%, 50%); transform-origin: center center;" data-level="201"><path fill-opacity="1" d=" M3.802999973297119,-11.670000076293945 C3.7669999599456787,-14.001999855041504 3.322999954223633,-16.291000366210938 2.7730000019073486,-18.711000442504883 C2.703000068664551,-19.059999465942383 2.61299991607666,-19.40999984741211 2.5329999923706055,-19.770000457763672 C1.753000020980835,-23.06999969482422 2.0940001010894775,-25.780000686645508 4.564000129699707,-28.18000030517578 C5.883999824523926,-29.469999313354492 7.453000068664551,-30.500999450683594 8.682999610900879,-31.889999389648438 C13.982999801635742,-37.91999816894531 10.402999877929688,-45.88999938964844 5.413000106811523,-50.750999450683594 C4.9629998207092285,-50.54999923706055 4.5229997634887695,-50.34000015258789 4.11299991607666,-50.119998931884766 C4.11299991607666,-50.119998931884766 9.77400016784668,-42.779998779296875 8.892999649047852,-37.65999984741211 C8.074000358581543,-32.810001373291016 -0.8859999775886536,-28.18000030517578 -1.8259999752044678,-27.700000762939453 C-1.6360000371932983,-21.239999771118164 -1.0959999561309814,-15.1899995803833 -0.6069999933242798,-13.020000457763672 C-1.1920000314712524,-12.732999801635742 3.75600004196167,-11.51200008392334 3.802999973297119,-11.670000076293945z" style="opacity:1;stroke-width:1px;stroke-linecap:butt;stroke-linejoin:miter;transform-origin:0px 0px;display:inline;" data-level="202" fill="rgb(31, 13, 82)"></path></g></g><g opacity="1" transform="matrix(1.945080041885376,0,0,1.945080041885376,188.04803466796875,129.95823669433594)" style="opacity: 1; visibility: visible; display: inline; transform: translate(-50%, -50%) matrix(1.95, 0, 0, 1.95, 188.05, 129.96) translate(50%, 50%); transform-origin: center center;" data-level="203"><g opacity="1" transform="matrix(1,0,0,1,40.827999114990234,75.3499984741211)" style="opacity: 1; visibility: visible; display: inline; transform: translate(-50%, -50%) matrix(1, 0, 0, 1, 40.83, 75.35) translate(50%, 50%); transform-origin: center center;" data-level="204"><path fill-opacity="1" d=" M3.9170000553131104,-3.9049999713897705 C3.9170000553131104,-3.9049999713897705 -1.972000002861023,-1.9279999732971191 -5.7129998207092285,-2.927999973297119 C-5.7129998207092285,-2.927999973297119 -4.853000164031982,3.9049999713897705 0.4309999942779541,3.072000026702881 C5.7129998207092285,2.23799991607666 3.9170000553131104,-3.9049999713897705 3.9170000553131104,-3.9049999713897705z" style="opacity:1;stroke-width:1px;stroke-linecap:butt;stroke-linejoin:miter;transform-origin:0px 0px;display:inline;" data-level="205" fill="rgb(95, 64, 211)"></path></g></g><g opacity="1" transform="matrix(1.945080041885376,0,0,1.945080041885376,188.0480499267578,129.95701599121094)" style="opacity: 1; visibility: visible; display: inline; transform: translate(-50%, -50%) matrix(1.95, 0, 0, 1.95, 188.05, 129.96) translate(50%, 50%); transform-origin: center center;" data-level="206"><g opacity="1" transform="matrix(1,0,0,1,35.737998962402344,95.56500244140625)" style="opacity: 1; visibility: visible; display: inline; transform: translate(-50%, -50%) matrix(1, 0, 0, 1, 35.74, 95.56) translate(50%, 50%); transform-origin: center center;" data-level="207"><path fill-opacity="1" d=" M14.649999618530273,-5.081999778747559 C14.649999618530273,-5.081999778747559 15.638999938964844,-3.184000015258789 15.218000411987305,-1.63100004196167 C15.218000411987305,-1.63100004196167 7.427999973297119,5.081999778747559 -15.638999938964844,1.1970000267028809 C-15.638999938964844,1.1970000267028809 -15.619000434875488,-1.4739999771118164 -15.024999618530273,-2.0989999771118164 C-15.024999618530273,-2.0989999771118164 0.2939999997615814,0.24699999392032623 14.649999618530273,-5.081999778747559z" style="opacity:1;stroke-width:1px;stroke-linecap:butt;stroke-linejoin:miter;transform-origin:0px 0px;display:inline;" data-level="208" fill="rgb(31, 13, 68)"></path></g></g><g opacity="1" transform="matrix(1.945080041885376,0,0,1.945080041885376,188.0493927001953,129.95826721191406)" style="opacity: 1; visibility: visible; display: inline; transform: translate(-50%, -50%) matrix(1.95, 0, 0, 1.95, 188.05, 129.96) translate(50%, 50%); transform-origin: center center;" data-level="209"><g opacity="1" transform="matrix(1,0,0,1,40.12900161743164,95.20999908447266)" style="opacity: 1; visibility: visible; display: inline; transform: translate(-50%, -50%) matrix(1, 0, 0, 1, 40.13, 95.21) translate(50%, 50%); transform-origin: center center;" data-level="210"><path fill-opacity="1" d=" M-3.1449999809265137,-1.4500000476837158 C-3.015000104904175,-0.5699999928474426 -2.865000009536743,0.30000001192092896 -2.6649999618530273,1.1610000133514404 C-2.565000057220459,1.5800000429153442 -2.505000114440918,2.2300000190734863 -2.234999895095825,2.5999999046325684 C-1.9850000143051147,2.9200000762939453 -1.715000033378601,2.940000057220459 -1.3350000381469727,2.9110000133514404 C-0.5550000071525574,2.871000051498413 0.29499998688697815,2.5999999046325684 1.065000057220459,2.450000047683716 C2.015000104904175,2.259999990463257 3.075000047683716,2.2799999713897705 3.125,1.100000023841858 C3.184999942779541,-0.1899999976158142 2.9049999713897705,-1.3200000524520874 2.494999885559082,-2.5399999618530273 C2.375,-2.9100000858306885 1.9950000047683716,-2.940000057220459 1.684999942779541,-2.890000104904175 C0.07500000298023224,-2.6500000953674316 -1.284999966621399,-2.450000047683716 -2.734999895095825,-2.0199999809265137 C-3.005000114440918,-1.9500000476837158 -3.184999942779541,-1.7400000095367432 -3.1449999809265137,-1.4500000476837158z M-2.0850000381469727,-1.149999976158142 C-0.8550000190734863,-1.4900000095367432 0.38499999046325684,-1.7300000190734863 1.6449999809265137,-1.878999948501587 C1.8550000190734863,-1.190000057220459 2.005000114440918,-0.49000000953674316 2.0850000381469727,0.23000000417232513 C2.1549999713897705,0.9399999976158142 2.2049999237060547,1.1100000143051147 1.5049999952316284,1.340000033378601 C1.125,1.4700000286102295 0.6949999928474426,1.5 0.29499998688697815,1.5800000429153442 C-0.054999999701976776,1.649999976158142 -0.7549999952316284,1.9299999475479126 -1.1050000190734863,1.850000023841858 C-1.6150000095367432,1.7300000190734863 -1.625,1.2200000286102295 -1.725000023841858,0.7900000214576721 C-1.8650000095367432,0.15000000596046448 -1.9850000143051147,-0.5 -2.0850000381469727,-1.149999976158142z" style="opacity:1;stroke-width:1px;stroke-linecap:butt;stroke-linejoin:miter;transform-origin:0px 0px;display:inline;" data-level="211" fill="rgb(116, 92, 236)"></path></g></g><g opacity="1" transform="matrix(1.945080041885376,0,0,1.945080041885376,188.0489501953125,129.95755004882812)" style="opacity: 1; visibility: visible; display: inline; transform: translate(-50%, -50%) matrix(1.95, 0, 0, 1.95, 188.05, 129.96) translate(50%, 50%); transform-origin: center center;" data-level="212"><g opacity="1" transform="matrix(1,0,0,1,40.18899917602539,95.23600006103516)" style="opacity: 1; visibility: visible; display: inline; transform: translate(-50%, -50%) matrix(1, 0, 0, 1, 40.19, 95.24) translate(50%, 50%); transform-origin: center center;" data-level="213"><path fill-opacity="1" d=" M-2.1449999809265137,-1.1759999990463257 C-2.0450000762939453,-0.5260000228881836 -1.9249999523162842,0.12399999797344208 -1.784999966621399,0.7639999985694885 C-1.684999942779541,1.194000005722046 -1.6749999523162842,1.7039999961853027 -1.1649999618530273,1.8240000009536743 C-0.8149999976158142,1.9040000438690186 -0.11500000208616257,1.6239999532699585 0.23499999940395355,1.5540000200271606 C0.6349999904632568,1.4739999771118164 1.065000057220459,1.444000005722046 1.4450000524520874,1.3140000104904175 C2.1449999809265137,1.0839999914169312 2.0950000286102295,0.9139999747276306 2.0250000953674316,0.20399999618530273 C1.9450000524520874,-0.515999972820282 1.7949999570846558,-1.215000033378601 1.5850000381469727,-1.9040000438690186 C0.32499998807907104,-1.7549999952316284 -0.9150000214576721,-1.5160000324249268 -2.1449999809265137,-1.1759999990463257z" style="opacity:1;stroke-width:1px;stroke-linecap:butt;stroke-linejoin:miter;transform-origin:0px 0px;display:inline;" data-level="214" fill="rgb(49, 23, 124)"></path></g></g><g opacity="1" transform="matrix(1.945080041885376,0,0,1.945080041885376,188.0491943359375,129.95819091796875)" style="opacity: 1; visibility: visible; display: inline; transform: translate(-50%, -50%) matrix(1.95, 0, 0, 1.95, 188.05, 129.96) translate(50%, 50%); transform-origin: center center;" data-level="215"><g opacity="1" transform="matrix(1,0,0,1,24.43400001525879,61.58399963378906)" style="opacity: 1; visibility: visible; display: inline; transform: translate(-50%, -50%) matrix(1, 0, 0, 1, 24.43, 61.58) translate(50%, 50%); transform-origin: center center;" data-level="216"><path fill-opacity="1" d=" M-2.700000047683716,-1.0540000200271606 C-2.700000047683716,-1.0540000200271606 0.9120000004768372,1.5110000371932983 2.171999931335449,2.940999984741211 C2.700000047683716,1.6200000047683716 2.311000108718872,-1.6729999780654907 0.11100000143051147,-2.940999984741211 C-0.6579999923706055,-2.555000066757202 -2.319999933242798,-1.3539999723434448 -2.700000047683716,-1.0540000200271606z" style="opacity:1;stroke-width:1px;stroke-linecap:butt;stroke-linejoin:miter;transform-origin:0px 0px;display:inline;" data-level="217" fill="rgb(255, 142, 9)"></path></g></g><g opacity="1" transform="matrix(1.945080041885376,0,0,1.945080041885376,188.0483856201172,129.95802307128906)" style="opacity: 1; visibility: visible; display: inline; transform: translate(-50%, -50%) matrix(1.95, 0, 0, 1.95, 188.05, 129.96) translate(50%, 50%); transform-origin: center center;" data-level="218"><g opacity="1" transform="matrix(1,0,0,1,23.558000564575195,73.4530029296875)" style="opacity: 1; visibility: visible; display: inline; transform: translate(-50%, -50%) matrix(1, 0, 0, 1, 23.56, 73.45) translate(50%, 50%); transform-origin: center center;" data-level="219"><path fill-opacity="1" d=" M3.263000011444092,-7.0370001792907715 C3.263000011444092,-7.0370001792907715 3.6510000228881836,-1.9010000228881836 0.4300000071525574,1.1360000371932983 C-2.7920000553131104,4.172999858856201 -3.992000102996826,5.308000087738037 -3.992000102996826,5.308000087738037 C-3.992000102996826,5.308000087738037 -3.9140000343322754,7.0370001792907715 -3.9140000343322754,7.0370001792907715 C-3.9140000343322754,7.0370001792907715 0.8790000081062317,3.7190001010894775 2.128999948501587,1.437000036239624 C3.378999948501587,-0.8450000286102295 3.992000102996826,-3.308000087738037 3.263000011444092,-7.0370001792907715z" style="opacity:1;stroke-width:1px;stroke-linecap:butt;stroke-linejoin:miter;transform-origin:0px 0px;display:inline;" data-level="220" fill="rgb(31, 13, 68)"></path></g></g></g><g transform="matrix(1.000004529953003,0,0,1.000004529953003,-1.5771952867507935,-1.0482978820800781)" opacity="1" style="display: block; opacity: 1; visibility: visible; transform: translate(-50%, -50%) matrix(1, 0, 0, 1, -1.58, -1.05) translate(50%, 50%); transform-origin: center center;" data-level="221"><g opacity="1" transform="matrix(1.945080041885376,0,0,1.945080041885376,188.048828125,129.95741271972656)" style="opacity: 1; visibility: visible; display: inline; transform: translate(-50%, -50%) matrix(1.95, 0, 0, 1.95, 188.05, 129.96) translate(50%, 50%); transform-origin: center center;" data-level="222"><g opacity="1" transform="matrix(1,0,0,1,50.834999084472656,77.64700317382812)" style="opacity: 1; visibility: visible; display: inline; transform: translate(-50%, -50%) matrix(1, 0, 0, 1, 50.84, 77.65) translate(50%, 50%); transform-origin: center center;" data-level="223"><path fill-opacity="1" d=" M-21.099000930786133,23.85700035095215 C-21.099000930786133,23.85700035095215 -21.099000930786133,23.85700035095215 -21.099000930786133,23.85700035095215 C-22.159000396728516,24.020999908447266 -23.086000442504883,23.132999420166016 -22.966999053955078,22.066999435424805 C-22.966999053955078,22.066999435424805 21.2189998626709,-24.020999908447266 21.2189998626709,-24.020999908447266 C21.2189998626709,-24.020999908447266 23.086999893188477,-22.229999542236328 23.086999893188477,-22.229999542236328 C23.086999893188477,-22.229999542236328 -21.099000930786133,23.85700035095215 -21.099000930786133,23.85700035095215z" style="opacity:1;stroke-width:1px;stroke-linecap:butt;stroke-linejoin:miter;transform-origin:0px 0px;display:inline;" data-level="224" fill="rgb(94, 64, 212)"></path></g></g><g opacity="1" transform="matrix(1.945080041885376,0,0,1.945080041885376,188.0486297607422,129.95797729492188)" style="opacity: 1; visibility: visible; display: inline; transform: translate(-50%, -50%) matrix(1.95, 0, 0, 1.95, 188.05, 129.96) translate(50%, 50%); transform-origin: center center;" data-level="225"><g opacity="1" transform="matrix(1,0,0,1,73.88300323486328,53.58700180053711)" style="opacity: 1; visibility: visible; display: inline; transform: translate(-50%, -50%) matrix(1, 0, 0, 1, 73.88, 53.59) translate(50%, 50%); transform-origin: center center;" data-level="226"><path fill-opacity="1" d=" M-2.5989999771118164,4.182000160217285 C-2.5989999771118164,4.182000160217285 -4.068999767303467,2.7730000019073486 -4.068999767303467,2.7730000019073486 C-4.695000171661377,2.171999931335449 -4.716000080108643,1.1779999732971191 -4.116000175476074,0.5519999861717224 C-4.116000175476074,0.5519999861717224 0.3790000081062317,-4.135000228881836 0.3790000081062317,-4.135000228881836 C0.9789999723434448,-4.761000156402588 1.9730000495910645,-4.7820000648498535 2.5989999771118164,-4.182000160217285 C2.5989999771118164,-4.182000160217285 4.067999839782715,-2.7730000019073486 4.067999839782715,-2.7730000019073486 C4.693999767303467,-2.171999931335449 4.716000080108643,-1.1779999732971191 4.114999771118164,-0.5519999861717224 C4.114999771118164,-0.5519999861717224 -0.3790000081062317,4.135000228881836 -0.3790000081062317,4.135000228881836 C-0.9789999723434448,4.761000156402588 -1.9730000495910645,4.7820000648498535 -2.5989999771118164,4.182000160217285z" style="opacity:1;stroke-width:1px;stroke-linecap:butt;stroke-linejoin:miter;transform-origin:0px 0px;display:inline;" data-level="227" fill="rgb(255, 173, 0)"></path></g></g><g opacity="1" transform="matrix(1.945080041885376,0,0,1.945080041885376,188.048828125,129.95838928222656)" style="opacity: 1; visibility: visible; display: inline; transform: translate(-50%, -50%) matrix(1.95, 0, 0, 1.95, 188.05, 129.96) translate(50%, 50%); transform-origin: center center;" data-level="228"><g opacity="1" transform="matrix(1,0,0,1,83.48600006103516,44.130001068115234)" style="opacity: 1; visibility: visible; display: inline; transform: translate(-50%, -50%) matrix(1, 0, 0, 1, 83.49, 44.13) translate(50%, 50%); transform-origin: center center;" data-level="229"><path fill-opacity="1" d=" M8.364999771118164,3.6500000953674316 C8.364999771118164,3.6500000953674316 -4.559000015258789,-8.739999771118164 -4.559000015258789,-8.739999771118164 C-4.559000015258789,-8.739999771118164 -8.923999786376953,-4.185999870300293 -8.923999786376953,-4.185999870300293 C-8.923999786376953,-4.185999870300293 4,8.204000473022461 4,8.204000473022461 C4.559000015258789,8.73900032043457 5.989999771118164,8.154999732971191 7.195000171661377,6.896999835968018 C8.399999618530273,5.639999866485596 8.923999786376953,4.185999870300293 8.364999771118164,3.6500000953674316z" style="opacity:1;stroke-width:1px;stroke-linecap:butt;stroke-linejoin:miter;transform-origin:0px 0px;display:inline;" data-level="230" fill="rgb(255, 173, 0)"></path></g></g><g opacity="1" transform="matrix(1.945080041885376,0,0,1.945080041885376,188.04782104492188,129.95773315429688)" style="opacity: 1; visibility: visible; display: inline; transform: translate(-50%, -50%) matrix(1.95, 0, 0, 1.95, 188.05, 129.96) translate(50%, 50%); transform-origin: center center;" data-level="231"><g opacity="1" transform="matrix(1,0,0,1,76.74500274658203,37.667999267578125)" style="opacity: 1; visibility: visible; display: inline; transform: translate(-50%, -50%) matrix(1, 0, 0, 1, 76.75, 37.67) translate(50%, 50%); transform-origin: center center;" data-level="232"><path fill-opacity="1" d=" M1.0119999647140503,0.9700000286102295 C-0.19300000369548798,2.2269999980926514 -1.6239999532699585,2.812999963760376 -2.181999921798706,2.2769999504089355 C-2.740999937057495,1.7419999837875366 -2.2170000076293945,0.28700000047683716 -1.0119999647140503,-0.968999981880188 C0.1940000057220459,-2.2269999980926514 1.6239999532699585,-2.812000036239624 2.183000087738037,-2.2760000228881836 C2.740999937057495,-1.7400000095367432 2.2179999351501465,-0.2879999876022339 1.0119999647140503,0.9700000286102295z" style="opacity:1;stroke-width:1px;stroke-linecap:butt;stroke-linejoin:miter;transform-origin:0px 0px;display:inline;" data-level="233" fill="rgb(255, 142, 9)"></path></g></g><g opacity="1" transform="matrix(1.945080041885376,0,0,1.945080041885376,188.04745483398438,129.9580841064453)" style="opacity: 1; visibility: visible; display: inline; transform: translate(-50%, -50%) matrix(1.95, 0, 0, 1.95, 188.05, 129.96) translate(50%, 50%); transform-origin: center center;" data-level="234"><g opacity="1" transform="matrix(1,0,0,1,74.6989974975586,42.736000061035156)" style="opacity: 1; visibility: visible; display: inline; transform: translate(-50%, -50%) matrix(1, 0, 0, 1, 74.7, 42.74) translate(50%, 50%); transform-origin: center center;" data-level="235"><path fill-opacity="1" d=" M2.9860000610351562,7.821000099182129 C2.9860000610351562,7.821000099182129 2.0510001182556152,6.925000190734863 2.0510001182556152,6.925000190734863 C2.0510001182556152,6.925000190734863 3.1070001125335693,5.826000213623047 3.1070001125335693,5.826000213623047 C3.2939999103546143,5.63100004196167 3.2869999408721924,5.321000099182129 3.0920000076293945,5.132999897003174 C3.0920000076293945,5.132999897003174 -4.51200008392334,-2.1570000648498535 -4.51200008392334,-2.1570000648498535 C-4.933000087738037,-2.559999942779541 -4.947999954223633,-3.2290000915527344 -4.544000148773193,-3.6500000953674316 C-4.544000148773193,-3.6500000953674316 -0.9620000123977661,-7.385000228881836 -0.9620000123977661,-7.385000228881836 C-0.5590000152587891,-7.807000160217285 0.11100000143051147,-7.821000099182129 0.5320000052452087,-7.416999816894531 C0.5320000052452087,-7.416999816894531 2.49399995803833,-5.534999847412109 2.49399995803833,-5.534999847412109 C2.4570000171661377,-5.050000190734863 2.0820000171661377,-4.6579999923706055 1.5989999771118164,-4.60099983215332 C1.5989999771118164,-4.60099983215332 0.16099999845027924,-5.979000091552734 0.16099999845027924,-5.979000091552734 C-0.03400000184774399,-6.165999889373779 -0.3449999988079071,-6.158999919891357 -0.5320000052452087,-5.964000225067139 C-0.5320000052452087,-5.964000225067139 -3.1050000190734863,-3.2790000438690186 -3.1050000190734863,-3.2790000438690186 C-3.2920000553131104,-3.0840001106262207 -3.2869999408721924,-2.7739999294281006 -3.0920000076293945,-2.5869998931884766 C-3.0920000076293945,-2.5869998931884766 4.51200008392334,4.703000068664551 4.51200008392334,4.703000068664551 C4.934000015258789,5.105999946594238 4.947999954223633,5.775000095367432 4.544000148773193,6.196000099182129 C4.544000148773193,6.196000099182129 2.9860000610351562,7.821000099182129 2.9860000610351562,7.821000099182129z" style="opacity:1;stroke-width:1px;stroke-linecap:butt;stroke-linejoin:miter;transform-origin:0px 0px;display:inline;" data-level="236" fill="rgb(94, 64, 212)"></path></g></g></g><g transform="matrix(1.945080041885376,0,0,1.945080041885376,188.0481414794922,129.9577178955078)" opacity="1" style="display: block; opacity: 1; visibility: visible; transform: translate(-50%, -50%) matrix(1.95, 0, 0, 1.95, 188.05, 129.96) translate(50%, 50%); transform-origin: center center;" data-level="237"><g opacity="1" transform="matrix(1,0,0,1,68.5260009765625,61.16899871826172)" style="opacity: 1; visibility: visible; display: inline; transform: translate(-50%, -50%) matrix(1, 0, 0, 1, 68.53, 61.17) translate(50%, 50%); transform-origin: center center;" data-level="238"><path fill-opacity="1" d=" M-0.7239999771118164,-1.2960000038146973 C-0.7229999899864197,-1.2970000505447388 -0.7229999899864197,-1.2990000247955322 -0.722000002861023,-1.3009999990463257 C-0.42800000309944153,-1.8700000047683716 0.18700000643730164,-2.496999979019165 0.8920000195503235,-2.371000051498413 C1.5759999752044678,-2.247999906539917 1.718000054359436,-1.4800000190734863 1.3040000200271606,-0.9940000176429749 C1.0260000228881836,-0.6690000295639038 0.6159999966621399,-0.47099998593330383 0.3179999887943268,-0.15700000524520874 C0.054999999701976776,0.12099999934434891 -0.14000000059604645,0.4309999942779541 -0.27000001072883606,0.7710000276565552 C-0.33000001311302185,1.1160000562667847 -0.3840000033378601,1.4630000591278076 -0.4490000009536743,1.7990000247955322 C-0.531000018119812,2.2219998836517334 -1.2339999675750732,2.496999979019165 -1.4019999504089355,1.9639999866485596 C-1.718000054359436,0.9610000252723694 -1.4220000505447388,-0.39500001072883606 -0.7239999771118164,-1.2960000038146973z" style="opacity:1;stroke-width:1px;stroke-linecap:butt;stroke-linejoin:miter;transform-origin:0px 0px;display:inline;" data-level="239" fill="rgb(255, 80, 92)"></path></g></g><g transform="matrix(1.945080041885376,0,0,1.945080041885376,188.0481414794922,129.9577178955078)" opacity="1" style="display: block; opacity: 1; visibility: visible; transform: translate(-50%, -50%) matrix(1.95, 0, 0, 1.95, 188.05, 129.96) translate(50%, 50%); transform-origin: center center;" data-level="240"><g opacity="1" transform="matrix(1,0,0,1,64.69400024414062,62.51499938964844)" style="opacity: 1; visibility: visible; display: inline; transform: translate(-50%, -50%) matrix(1, 0, 0, 1, 64.69, 62.52) translate(50%, 50%); transform-origin: center center;" data-level="241"><path fill-opacity="1" d=" M-1.7599999904632568,2.5799999237060547 C-0.9409999847412109,3.180000066757202 0.28700000047683716,3.8440001010894775 1.4520000219345093,3.438999891281128 C3.3369998931884766,2.7839999198913574 3.558000087738037,0.8399999737739563 3.1540000438690186,-0.9039999842643738 C2.9059998989105225,-1.9730000495910645 2.240999937057495,-3.382999897003174 1.1469999551773071,-3.681999921798706 C0.5519999861717224,-3.8440001010894775 0.15399999916553497,-3.615000009536743 0.1889999955892563,-3.131999969482422 C0.20999999344348907,-2.8540000915527344 0.5619999766349792,-2.562999963760376 0.7170000076293945,-2.313999891281128 C1.0740000009536743,-1.7410000562667847 1.36899995803833,-1.1380000114440918 1.3370000123977661,-0.48899999260902405 C1.2940000295639038,0.35899999737739563 1.2769999504089355,-0.2849999964237213 1.1139999628067017,-0.6520000100135803 C0.9430000185966492,-1.0410000085830688 0.753000020980835,-1.4129999876022339 0.4860000014305115,-1.7690000534057617 C0.16599999368190765,-2.194000005722046 -0.9729999899864197,-3.4790000915527344 -1.7960000038146973,-3.1480000019073486 C-2.750999927520752,-2.763000011444092 -1.5399999618530273,-1.6649999618530273 -1.225000023841858,-1.2990000247955322 C-0.9950000047683716,-1.031000018119812 -0.08299999684095383,0.03400000184774399 -0.1679999977350235,0.4169999957084656 C-0.18700000643730164,0.21400000154972076 -0.5619999766349792,-0.20100000500679016 -0.6330000162124634,-0.2939999997615814 C-0.8849999904632568,-0.6259999871253967 -1.1720000505447388,-1.0360000133514404 -1.6410000324249268,-1.2079999446868896 C-2.2660000324249268,-1.437000036239624 -2.9019999504089355,-1.2769999504089355 -2.8440001010894775,-0.6740000247955322 C-2.803999900817871,-0.25699999928474426 -2.069000005722046,0.257999986410141 -1.7940000295639038,0.5550000071525574 C-1.63100004196167,0.7419999837875366 -1.468000054359436,0.9290000200271606 -1.3049999475479126,1.1150000095367432 C-1.0520000457763672,1.527999997138977 -1.1449999809265137,1.5180000066757202 -1.5850000381469727,1.0850000381469727 C-1.9119999408721924,0.9309999942779541 -2.256999969482422,0.6349999904632568 -2.563999891281128,0.45100000500679016 C-2.7070000171661377,0.36500000953674316 -2.9749999046325684,0.39399999380111694 -3.065999984741211,0.5239999890327454 C-3.558000087738037,1.225000023841858 -2.3489999771118164,2.1489999294281006 -1.7599999904632568,2.5799999237060547z" style="opacity:1;stroke-width:1px;stroke-linecap:butt;stroke-linejoin:miter;transform-origin:0px 0px;display:inline;" data-level="242" fill="rgb(255, 80, 92)"></path></g></g><g transform="matrix(1.945080041885376,0,0,1.945080041885376,186.47149658203125,128.91055297851562)" opacity="1" style="display: block; opacity: 1; visibility: visible; transform: translate(-50%, -50%) matrix(1.95, 0, 0, 1.95, 186.47, 128.91) translate(50%, 50%); transform-origin: center center;" data-level="243"><g opacity="1" transform="matrix(1,0,0,1,38.637001037597656,84.86000061035156)" style="opacity: 1; visibility: visible; display: inline; transform: translate(-50%, -50%) matrix(1, 0, 0, 1, 38.64, 84.86) translate(50%, 50%); transform-origin: center center;" data-level="244"><path fill-opacity="1" d=" M-0.15700000524520874,0.7910000085830688 C0.10499999672174454,0.6430000066757202 0.3269999921321869,0.3840000033378601 0.5809999704360962,0.21199999749660492 C0.8610000014305115,0.02199999988079071 1.2050000429153442,-0.24300000071525574 1.3539999723434448,-0.5600000023841858 C1.600000023841858,-1.0789999961853027 1.069000005722046,-1.1480000019073486 0.6859999895095825,-1.0290000438690186 C-0.01600000075995922,-0.8100000023841858 -1.1030000448226929,0.5260000228881836 -1.5420000553131104,1.0750000476837158 C-1.600000023841858,1.1480000019073486 -0.4259999990463257,0.9430000185966492 -0.15700000524520874,0.7910000085830688z" style="opacity:1;stroke-width:1px;stroke-linecap:butt;stroke-linejoin:miter;transform-origin:0px 0px;display:inline;" data-level="245" fill="rgb(255, 80, 92)"></path></g></g><g transform="matrix(1.945080041885376,0,0,1.945080041885376,186.47149658203125,128.91055297851562)" opacity="1" style="display: block; opacity: 1; visibility: visible; transform: translate(-50%, -50%) matrix(1.95, 0, 0, 1.95, 186.47, 128.91) translate(50%, 50%); transform-origin: center center;" data-level="246"><g opacity="1" transform="matrix(1,0,0,1,39.5359992980957,88.03199768066406)" style="opacity: 1; visibility: visible; display: inline; transform: translate(-50%, -50%) matrix(1, 0, 0, 1, 39.54, 88.03) translate(50%, 50%); transform-origin: center center;" data-level="247"><path fill-opacity="1" d=" M-3.8949999809265137,1.4809999465942383 C-3.490999937057495,2.071000099182129 -3.013000011444092,1.7139999866485596 -2.4030001163482666,1.805999994277954 C-1.659999966621399,1.9179999828338623 0.24799999594688416,3.433000087738037 1.062000036239624,3.0810000896453857 C2.1480000019073486,2.6110000610351562 -0.24799999594688416,1.937999963760376 0.30300000309944153,1.4520000219345093 C0.5009999871253967,1.2790000438690186 3.809000015258789,2.7960000038146973 2.924999952316284,1.2489999532699585 C2.7290000915527344,0.9070000052452087 0.9739999771118164,0.04699999839067459 1.6779999732971191,-0.08900000154972076 C2.4660000801086426,0.14800000190734863 4.164000034332275,0.921999990940094 4.4070000648498535,0.13500000536441803 C4.521999835968018,-0.23600000143051147 3.572999954223633,-0.7940000295639038 3.0759999752044678,-0.9480000138282776 C0.6159999966621399,-1.7050000429153442 1.9129999876022339,-1.7829999923706055 3.5250000953674316,-1.1770000457763672 C4.361999988555908,-0.8640000224113464 4.796999931335449,-1.3240000009536743 4.10099983215332,-2.009999990463257 C2.6549999713897705,-3.433000087738037 -0.09000000357627869,-3.2079999446868896 -1.7910000085830688,-2.556999921798706 C-2.510999917984009,-2.2820000648498535 -4.796999931335449,0.164000004529953 -3.8949999809265137,1.4809999465942383z" style="opacity:1;stroke-width:1px;stroke-linecap:butt;stroke-linejoin:miter;transform-origin:0px 0px;display:inline;" data-level="248" fill="rgb(255, 80, 92)"></path></g></g><g transform="matrix(1,0,0,1,0,0)" opacity="1" style="display: block; opacity: 1; visibility: visible;" data-level="249"><g opacity="1" transform="matrix(1.945080041885376,0,0,1.945080041885376,188.0492706298828,129.95840454101562)" style="opacity: 1; visibility: visible; display: inline; transform: translate(-50%, -50%) matrix(1.95, 0, 0, 1.95, 188.05, 129.96) translate(50%, 50%); transform-origin: center center;" data-level="250"><g opacity="1" transform="matrix(1,0,0,1,20.468000411987305,78.46800231933594)" style="opacity: 1; visibility: visible; display: inline; transform: translate(-50%, -50%) matrix(1, 0, 0, 1, 20.47, 78.47) translate(50%, 50%); transform-origin: center center;" data-level="251"><path fill-opacity="1" d=" M-9.270000457763672,17.200000762939453 C-1.7200000286102295,18.8799991607666 7.829999923706055,15.170000076293945 12.640000343322754,12.9399995803833 C14.541000366210938,12.050000190734863 15.699999809265137,11.388999938964844 15.699999809265137,11.388999938964844 C15.791000366210938,11.069999694824219 16.89699935913086,8.652999877929688 15.82699966430664,8.369999885559082 C14.756999969482422,8.086999893188477 4.019999980926514,9.119999885559082 -1.909999966621399,8.789999961853027 C-3.200000047683716,8.710000038146973 -4.199999809265137,8.529999732971191 -4.709000110626221,8.220000267028809 C-5.380000114440918,7.809999942779541 -2.5999999046325684,1.9199999570846558 -0.5400000214576721,-0.05999999865889549 C0.3799999952316284,-0.9399999976158142 1.350000023841858,-1.809999942779541 2.190000057220459,-2.5399999618530273 C4.230000019073486,-4.321000099182129 5.699999809265137,-6.699999809265137 6.159999847412109,-9.369999885559082 C6.610000133514404,-11.930000305175781 6.239999771118164,-14.09000015258789 5.619999885559082,-15.779999732971191 C4.760000228881836,-18.1299991607666 1.7910000085830688,-18.8799991607666 -0.15000000596046448,-17.299999237060547 C-3.880000114440918,-14.260000228881836 -5.78000020980835,-12.649999618530273 -10.449999809265137,-7.099999904632568 C-10.470000267028809,-7.071000099182129 -10.5,-7.050000190734863 -10.520000457763672,-7.019999980926514 C-16.420000076293945,-0.03999999910593033 -16.6299991607666,15.5600004196167 -9.270000457763672,17.200000762939453z" style="opacity:1;stroke-width:1px;stroke-linecap:butt;stroke-linejoin:miter;transform-origin:0px 0px;display:inline;" data-level="252" fill="rgb(255, 80, 92)"></path></g></g><g opacity="1" transform="matrix(1.945080041885376,0,0,1.945080041885376,188.0487060546875,129.9581298828125)" style="opacity: 1; visibility: visible; display: inline; transform: translate(-50%, -50%) matrix(1.95, 0, 0, 1.95, 188.05, 129.96) translate(50%, 50%); transform-origin: center center;" data-level="253"><g opacity="1" transform="matrix(1,0,0,1,18.472999572753906,84.31300354003906)" style="opacity: 1; visibility: visible; display: inline; transform: translate(-50%, -50%) matrix(1, 0, 0, 1, 18.47, 84.31) translate(50%, 50%); transform-origin: center center;" data-level="254"><path fill-opacity="1" d=" M-7.275000095367432,11.354999542236328 C0.2750000059604645,13.03499984741211 9.824999809265137,9.324999809265137 14.635000228881836,7.09499979019165 C14.524999618530273,6.84499979019165 14.244999885559082,6.644999980926514 13.744999885559082,6.554999828338623 C12.335000038146973,6.284999847412109 10.104999542236328,7.304999828338623 8.675000190734863,7.59499979019165 C6.565000057220459,8.03499984741211 4.434999942779541,8.425000190734863 2.305000066757202,8.694999694824219 C-0.06499999761581421,9.005000114440918 -2.6050000190734863,9.364999771118164 -4.985000133514404,9.0649995803833 C-8.444999694824219,8.625 -9.595000267028809,5.744999885559082 -9.675000190734863,2.6449999809265137 C-9.805000305175781,-2.005000114440918 -8.744999885559082,-6.224999904632568 -6.815000057220459,-10.416000366210938 C-6.625,-10.444999694824219 -6.454999923706055,-10.585000038146973 -6.434999942779541,-10.845000267028809 C-6.335000038146973,-12.545000076293945 -7.295000076293945,-13.03499984741211 -8.454999923706055,-12.944999694824219 C-8.475000381469727,-12.916000366210938 -8.505000114440918,-12.895000457763672 -8.524999618530273,-12.864999771118164 C-14.425000190734863,-5.885000228881836 -14.635000228881836,9.71500015258789 -7.275000095367432,11.354999542236328z" style="opacity:1;stroke-width:1px;stroke-linecap:butt;stroke-linejoin:miter;transform-origin:0px 0px;display:inline;" data-level="255" fill="rgb(251, 59, 75)"></path></g></g><g opacity="1" transform="matrix(1.945080041885376,0,0,1.945080041885376,188.04769897460938,129.95852661132812)" style="opacity: 1; visibility: visible; display: inline; transform: translate(-50%, -50%) matrix(1.95, 0, 0, 1.95, 188.05, 129.96) translate(50%, 50%); transform-origin: center center;" data-level="256"><g opacity="1" transform="matrix(1,0,0,1,17.13800048828125,82.822998046875)" style="opacity: 1; visibility: visible; display: inline; transform: translate(-50%, -50%) matrix(1, 0, 0, 1, 17.14, 82.82) translate(50%, 50%); transform-origin: center center;" data-level="257"><path fill-opacity="1" d=" M-0.9900000095367432,4.394999980926514 C-0.30000001192092896,4.705999851226807 0.6399999856948853,4.724999904632568 1.4199999570846558,4.434999942779541 C0.12999999523162842,4.355000019073486 -0.8700000047683716,4.175000190734863 -1.3799999952316284,3.865000009536743 C-2.049999952316284,3.4560000896453857 0.7300000190734863,-2.434999942779541 2.7899999618530273,-4.414999961853027 C2.6500000953674316,-4.635000228881836 2.2899999618530273,-4.724999904632568 2.049999952316284,-4.554999828338623 C1.899999976158142,-4.625 1.7200000286102295,-4.625 1.559999942779541,-4.485000133514404 C-0.029999999329447746,-3.125 -1.899999976158142,-1.315000057220459 -2.430000066757202,0.7850000262260437 C-2.7899999618530273,2.174999952316284 -2.390000104904175,3.765000104904175 -0.9900000095367432,4.394999980926514z" style="opacity:1;stroke-width:1px;stroke-linecap:butt;stroke-linejoin:miter;transform-origin:0px 0px;display:inline;" data-level="258" fill="rgb(251, 59, 75)"></path></g></g><g opacity="1" transform="matrix(1.945080041885376,0,0,1.945080041885376,188.04844665527344,129.9582061767578)" style="opacity: 1; visibility: visible; display: inline; transform: translate(-50%, -50%) matrix(1.95, 0, 0, 1.95, 188.05, 129.96) translate(50%, 50%); transform-origin: center center;" data-level="259"><g opacity="1" transform="matrix(1,0,0,1,17.79400062561035,69.48999786376953)" style="opacity: 1; visibility: visible; display: inline; transform: translate(-50%, -50%) matrix(1, 0, 0, 1, 17.79, 69.49) translate(50%, 50%); transform-origin: center center;" data-level="260"><path fill-opacity="1" d=" M2.1510000228881836,10.555999755859375 C3,9.744000434875488 8.342000007629395,4.507999897003174 9.16100025177002,-0.6970000267028809 C9.532999992370605,-3.065000057220459 8.798999786376953,-8.779999732971191 5.8520002365112305,-9.463000297546387 C1.1299999952316284,-10.555999755859375 -5.178999900817871,-3.703000068664551 -9.532999992370605,1.4709999561309814 C-7.533999919891357,5.9770002365112305 -3.1519999504089355,9.128000259399414 2.1510000228881836,10.555999755859375z" style="opacity:1;stroke-width:1px;stroke-linecap:butt;stroke-linejoin:miter;transform-origin:0px 0px;display:inline;" data-level="261" fill="rgb(255, 173, 0)"></path></g></g></g><g transform="matrix(1,0,0,1,0,0)" opacity="1" style="display: block; opacity: 1; visibility: visible;" data-level="262"><g opacity="1" transform="matrix(1.945080041885376,0,0,1.945080041885376,188.04745483398438,129.9576416015625)" style="opacity: 1; visibility: visible; display: inline; transform: translate(-50%, -50%) matrix(1.95, 0, 0, 1.95, 188.05, 129.96) translate(50%, 50%); transform-origin: center center;" data-level="263"><g opacity="1" transform="matrix(1,0,0,1,36.33399963378906,52.40999984741211)" style="opacity: 1; visibility: visible; display: inline; transform: translate(-50%, -50%) matrix(1, 0, 0, 1, 36.33, 52.41) translate(50%, 50%); transform-origin: center center;" data-level="264"><path fill-opacity="1" d=" M-2.0360000133514404,0.5210000276565552 C-2.0360000133514404,0.5210000276565552 -2.0360000133514404,-1.6299999952316284 -2.0360000133514404,-1.6299999952316284 C-2.0360000133514404,-1.6299999952316284 0.035999998450279236,1.0130000114440918 2.0360000133514404,1.1260000467300415 C2.0360000133514404,1.1260000467300415 -0.37400001287460327,1.6299999952316284 -2.0360000133514404,0.5210000276565552z" style="opacity:1;stroke-width:1px;stroke-linecap:butt;stroke-linejoin:miter;transform-origin:0px 0px;display:inline;" data-level="265" fill="rgb(251, 59, 75)"></path></g></g><g opacity="1" transform="matrix(1.945080041885376,0,0,1.945080041885376,188.04791259765625,129.95736694335938)" style="opacity: 1; visibility: visible; display: inline; transform: translate(-50%, -50%) matrix(1.95, 0, 0, 1.95, 188.05, 129.96) translate(50%, 50%); transform-origin: center center;" data-level="266"><g opacity="1" transform="matrix(1,0,0,1,36.66899871826172,49.257999420166016)" style="opacity: 1; visibility: visible; display: inline; transform: translate(-50%, -50%) matrix(1, 0, 0, 1, 36.67, 49.26) translate(50%, 50%); transform-origin: center center;" data-level="267"><path fill-opacity="1" d=" M2.7009999752044678,-5.270999908447266 C2.7009999752044678,-5.270999908447266 4.201000213623047,-2.2290000915527344 4.576000213623047,0.6039999723434448 C4.8420000076293945,2.615999937057495 1.1579999923706055,5.270999908447266 -1.8420000076293945,2.437000036239624 C-4.8420000076293945,-0.3959999978542328 -4.007999897003174,-4.729000091552734 -4.007999897003174,-4.729000091552734 C-4.007999897003174,-4.729000091552734 2.7009999752044678,-5.270999908447266 2.7009999752044678,-5.270999908447266z" style="opacity:1;stroke-width:1px;stroke-linecap:butt;stroke-linejoin:miter;transform-origin:0px 0px;display:inline;" data-level="268" fill="rgb(255, 80, 92)"></path></g></g><g opacity="1" transform="matrix(1.945080041885376,0,0,1.945080041885376,188.04783630371094,129.95858764648438)" style="opacity: 1; visibility: visible; display: inline; transform: translate(-50%, -50%) matrix(1.95, 0, 0, 1.95, 188.05, 129.96) translate(50%, 50%); transform-origin: center center;" data-level="269"><g opacity="1" transform="matrix(1,0,0,1,33.14899826049805,48.06999969482422)" style="opacity: 1; visibility: visible; display: inline; transform: translate(-50%, -50%) matrix(1, 0, 0, 1, 33.15, 48.07) translate(50%, 50%); transform-origin: center center;" data-level="270"><path fill-opacity="1" d=" M-1.246999979019165,-0.31700000166893005 C-1.2680000066757202,-0.3370000123977661 -1.284999966621399,-0.453000009059906 -1.3350000381469727,-0.5830000042915344 C-1.6180000305175781,-1.3079999685287476 -1.4170000553131104,-2.130000114440918 -0.9100000262260437,-2.6989998817443848 C-0.6940000057220459,-2.940999984741211 -0.37400001287460327,-2.9119999408721924 -0.1679999977350235,-2.763000011444092 C-0.1589999943971634,-2.763000011444092 -0.15299999713897705,-2.7679998874664307 -0.14399999380111694,-2.7679998874664307 C0.7099999785423279,-2.8340001106262207 0.7110000252723694,-1.7960000038146973 0.828000009059906,-1.2259999513626099 C1.024999976158142,-0.26899999380111694 1.6180000305175781,0.8790000081062317 1.319000005722046,1.8700000047683716 C1.1200000047683716,2.5299999713897705 0.47699999809265137,2.940999984741211 -0.2070000022649765,2.740000009536743 C-1.031999945640564,2.496999979019165 -0.9449999928474426,1.7309999465942383 -1.2259999513626099,1.100000023841858 C-1.3930000066757202,0.7229999899864197 -1.5199999809265137,0.4580000042915344 -1.4119999408721924,0.03500000014901161 C-1.3799999952316284,-0.09099999815225601 -1.3049999475479126,-0.2029999941587448 -1.246999979019165,-0.31700000166893005z" style="opacity:1;stroke-width:1px;stroke-linecap:butt;stroke-linejoin:miter;transform-origin:0px 0px;display:inline;" data-level="271" fill="rgb(49, 23, 124)"></path></g></g><g opacity="1" transform="matrix(1.945080041885376,0,0,1.945080041885376,188.0484619140625,129.95797729492188)" style="opacity: 1; visibility: visible; display: inline; transform: translate(-50%, -50%) matrix(1.95, 0, 0, 1.95, 188.05, 129.96) translate(50%, 50%); transform-origin: center center;" data-level="272"><g opacity="1" transform="matrix(1,0,0,1,36.130001068115234,43.060001373291016)" style="opacity: 1; visibility: visible; display: inline; transform: translate(-50%, -50%) matrix(1, 0, 0, 1, 36.13, 43.06) translate(50%, 50%); transform-origin: center center;" data-level="273"><path fill-opacity="1" d=" M4.323999881744385,1.2599999904632568 C4.323999881744385,1.2599999904632568 3.0510001182556152,-3.0739998817443848 -0.6359999775886536,-2.433000087738037 C-4.323999881744385,-1.7940000295639038 -4.28000020980835,2.364000082015991 -4.28000020980835,2.364000082015991 C-4.28000020980835,2.364000082015991 -0.009999999776482582,3.0739998817443848 2.6640000343322754,2.252000093460083 C3.359999895095825,2.0380001068115234 3.947999954223633,1.7209999561309814 4.323999881744385,1.2599999904632568z" style="opacity:1;stroke-width:1px;stroke-linecap:butt;stroke-linejoin:miter;transform-origin:0px 0px;display:inline;" data-level="274" fill="rgb(255, 173, 0)"></path></g></g><g opacity="1" transform="matrix(1.945080041885376,0,0,1.945080041885376,188.04885864257812,129.95794677734375)" style="opacity: 1; visibility: visible; display: inline; transform: translate(-50%, -50%) matrix(1.95, 0, 0, 1.95, 188.05, 129.96) translate(50%, 50%); transform-origin: center center;" data-level="275"><g opacity="1" transform="matrix(1,0,0,1,36.34299850463867,43.23899841308594)" style="opacity: 1; visibility: visible; display: inline; transform: translate(-50%, -50%) matrix(1, 0, 0, 1, 36.34, 43.24) translate(50%, 50%); transform-origin: center center;" data-level="276"><path fill-opacity="1" d=" M2.4519999027252197,2.072999954223633 C2.4519999027252197,2.072999954223633 2.6470000743865967,-0.46399998664855957 1.3600000143051147,-2.2279999256134033 C1.065000057220459,-2.631999969482422 0.6330000162124634,-2.882999897003174 0.1679999977350235,-2.9230000972747803 C-0.6959999799728394,-2.996000051498413 -2.1670000553131104,-2.947999954223633 -2.6470000743865967,-1.8639999628067017 C-2.6470000743865967,-1.8639999628067017 0.06599999964237213,0.6940000057220459 0.07900000363588333,2.561000108718872 C0.07900000363588333,2.561000108718872 1.9889999628067017,2.994999885559082 2.4519999027252197,2.072999954223633z" style="opacity:1;stroke-width:1px;stroke-linecap:butt;stroke-linejoin:miter;transform-origin:0px 0px;display:inline;" data-level="277" fill="rgb(255, 211, 61)"></path></g></g><g opacity="1" transform="matrix(1.945080041885376,0,0,1.945080041885376,188.0484619140625,129.9584197998047)" style="opacity: 1; visibility: visible; display: inline; transform: translate(-50%, -50%) matrix(1.95, 0, 0, 1.95, 188.05, 129.96) translate(50%, 50%); transform-origin: center center;" data-level="278"><g opacity="1" transform="matrix(1,0,0,1,36.152000427246094,45.07500076293945)" style="opacity: 1; visibility: visible; display: inline; transform: translate(-50%, -50%) matrix(1, 0, 0, 1, 36.15, 45.08) translate(50%, 50%); transform-origin: center center;" data-level="279"><path fill-opacity="1" d=" M-4.302000045776367,0.3499999940395355 C-4.302000045776367,0.3499999940395355 2.2019999027252197,1.0240000486373901 4.302000045776367,-0.7540000081062317 C4.302000045776367,-0.7540000081062317 4.209000110626221,-1.0240000486373901 4.209000110626221,-1.0240000486373901 C4.209000110626221,-1.0240000486373901 2.9839999675750732,-0.1589999943971634 -4.289999961853027,0.06700000166893005 C-4.289999961853027,0.06700000166893005 -4.302000045776367,0.3499999940395355 -4.302000045776367,0.3499999940395355z" style="opacity:1;stroke-width:1px;stroke-linecap:butt;stroke-linejoin:miter;transform-origin:0px 0px;display:inline;" data-level="280" fill="rgb(255, 211, 61)"></path></g></g><g opacity="1" transform="matrix(1.945080041885376,0,0,1.945080041885376,188.04693603515625,129.9572296142578)" style="opacity: 1; visibility: visible; display: inline; transform: translate(-50%, -50%) matrix(1.95, 0, 0, 1.95, 188.05, 129.96) translate(50%, 50%); transform-origin: center center;" data-level="281"><g opacity="1" transform="matrix(1,0,0,1,36.909000396728516,45.67399978637695)" style="opacity: 1; visibility: visible; display: inline; transform: translate(-50%, -50%) matrix(1, 0, 0, 1, 36.91, 45.67) translate(50%, 50%); transform-origin: center center;" data-level="282"><path fill-opacity="1" d=" M-5.047999858856201,-0.17000000178813934 C-5.026000022888184,0.0020000000949949026 -4.89300012588501,0.10599999874830246 -4.750999927520752,0.17900000512599945 C-3.6760001182556152,0.7229999899864197 -1.7669999599456787,0.9110000133514404 -0.6579999923706055,1.0199999809265137 C2.753000020980835,1.3550000190734863 5.058000087738037,0.45100000500679016 5.052999973297119,-0.17399999499320984 C5.048999786376953,-0.7979999780654907 3.5460000038146973,-1.3550000190734863 3.5460000038146973,-1.3550000190734863 C3.5460000038146973,-1.3550000190734863 2.627000093460083,-0.27799999713897705 -5.059000015258789,-0.24899999797344208 C-5.059000015258789,-0.24899999797344208 -5.047999858856201,-0.17000000178813934 -5.047999858856201,-0.17000000178813934z" style="opacity:1;stroke-width:1px;stroke-linecap:butt;stroke-linejoin:miter;transform-origin:0px 0px;display:inline;" data-level="283" fill="rgb(255, 173, 0)"></path></g></g><g opacity="1" transform="matrix(1.945080041885376,0,0,1.945080041885376,188.04928588867188,129.95791625976562)" style="opacity: 1; visibility: visible; display: inline; transform: translate(-50%, -50%) matrix(1.95, 0, 0, 1.95, 188.05, 129.96) translate(50%, 50%); transform-origin: center center;" data-level="284"><g opacity="1" transform="matrix(1,0,0,1,37.47100067138672,51.36600112915039)" style="opacity: 1; visibility: visible; display: inline; transform: translate(-50%, -50%) matrix(1, 0, 0, 1, 37.47, 51.37) translate(50%, 50%); transform-origin: center center;" data-level="285"><path fill-opacity="1" d=" M-3.6059999465942383,-1.555999994277954 C-3.6510000228881836,-1.6089999675750732 -3.703000068664551,-1.652999997138977 -3.746999979019165,-1.7059999704360962 C-4.1539998054504395,-2.2039999961853027 -3.388000011444092,-2.8489999771118164 -2.9800000190734863,-2.3489999771118164 C-2.496999979019165,-1.7569999694824219 -1.9509999752044678,-1.2979999780654907 -1.2209999561309814,-1.0379999876022339 C-0.2549999952316284,-0.6959999799728394 0.20100000500679016,-0.9890000224113464 0.8610000014305115,-1.6260000467300415 C1.0540000200271606,-1.8140000104904175 1.4040000438690186,-1.7619999647140503 1.565999984741211,-1.565000057220459 C2.1500000953674316,-0.8560000061988831 3.8259999752044678,-1.843000054359436 4.033999919891357,-0.7490000128746033 C4.197999954223633,0.11800000071525574 3.265000104904175,1.6469999551773071 2.243000030517578,1.975000023841858 C-0.4790000021457672,2.8480000495910645 -2.424999952316284,0.9860000014305115 -3.9189999103546143,-0.7459999918937683 C-4.197999954223633,-1.0709999799728394 -3.946000099182129,-1.49399995803833 -3.6059999465942383,-1.555999994277954z" style="opacity:1;stroke-width:1px;stroke-linecap:butt;stroke-linejoin:miter;transform-origin:0px 0px;display:inline;" data-level="286" fill="rgb(49, 23, 123)"></path></g></g></g></g></svg>